<mxfile host="app.diagrams.net" modified="2024-03-06T20:14:01.806Z" agent="Mozilla/5.0 (Windows NT 10.0; Win64; x64; rv:122.0) Gecko/20100101 Firefox/122.0" etag="33LCsTqGMR_NARDL6XIo" version="24.0.2" type="github">
  <diagram name="Page-1" id="xngx0R_4Qx-7MbqiRMaa">
    <mxGraphModel dx="989" dy="495" grid="1" gridSize="10" guides="1" tooltips="1" connect="1" arrows="1" fold="1" page="1" pageScale="1" pageWidth="850" pageHeight="1100" math="0" shadow="0">
      <root>
        <mxCell id="0" />
        <mxCell id="1" parent="0" />
        <mxCell id="jz8msP8jfMx1-e_s_hBi-20" value="" style="rounded=1;whiteSpace=wrap;html=1;" vertex="1" parent="1">
          <mxGeometry x="455" y="25" width="95" height="40" as="geometry" />
        </mxCell>
        <mxCell id="jz8msP8jfMx1-e_s_hBi-7" value="Actor" style="shape=umlActor;verticalLabelPosition=bottom;verticalAlign=top;html=1;labelPadding=0;noLabel=1;" vertex="1" parent="1">
          <mxGeometry x="100" y="30" width="10" height="30" as="geometry" />
        </mxCell>
        <mxCell id="jz8msP8jfMx1-e_s_hBi-9" value="entitate" style="text;strokeColor=none;align=center;fillColor=none;html=1;verticalAlign=middle;whiteSpace=wrap;rounded=0;" vertex="1" parent="1">
          <mxGeometry x="30" y="40" width="60" as="geometry" />
        </mxCell>
        <mxCell id="jz8msP8jfMx1-e_s_hBi-10" value="" style="endArrow=classic;html=1;rounded=0;" edge="1" parent="1" source="jz8msP8jfMx1-e_s_hBi-7">
          <mxGeometry relative="1" as="geometry">
            <mxPoint x="220.00000000000003" y="30" as="sourcePoint" />
            <mxPoint x="270" y="45" as="targetPoint" />
          </mxGeometry>
        </mxCell>
        <mxCell id="jz8msP8jfMx1-e_s_hBi-11" value="&lt;div style=&quot;font-size: 9px;&quot;&gt;&lt;font style=&quot;font-size: 9px;&quot;&gt;&lt;b&gt;completeaza prin portal&lt;/b&gt;&lt;/font&gt;&lt;/div&gt;&lt;div style=&quot;font-size: 9px;&quot;&gt;&lt;font style=&quot;font-size: 9px;&quot;&gt;&lt;b&gt;o sesizare cu privire&lt;/b&gt;&lt;/font&gt;&lt;/div&gt;&lt;div style=&quot;font-size: 9px;&quot;&gt;&lt;font style=&quot;font-size: 9px;&quot;&gt;&lt;b&gt;la neconcordante&lt;/b&gt;&lt;/font&gt;&lt;/div&gt;&lt;div style=&quot;font-size: 9px;&quot;&gt;&lt;b&gt;&lt;font style=&quot;font-size: 9px;&quot;&gt;Benef. Reali&lt;/font&gt;&lt;br&gt;&lt;/b&gt;&lt;/div&gt;" style="edgeLabel;resizable=0;html=1;;align=center;verticalAlign=middle;fontSize=8;" connectable="0" vertex="1" parent="jz8msP8jfMx1-e_s_hBi-10">
          <mxGeometry relative="1" as="geometry" />
        </mxCell>
        <mxCell id="jz8msP8jfMx1-e_s_hBi-29" value="" style="edgeStyle=orthogonalEdgeStyle;rounded=0;orthogonalLoop=1;jettySize=auto;html=1;" edge="1" parent="1" source="jz8msP8jfMx1-e_s_hBi-15" target="jz8msP8jfMx1-e_s_hBi-18">
          <mxGeometry relative="1" as="geometry" />
        </mxCell>
        <mxCell id="jz8msP8jfMx1-e_s_hBi-15" value="&lt;div&gt;&lt;font face=&quot;Times New Roman&quot; style=&quot;font-size: 8px;&quot;&gt;&lt;b&gt;ataseaza documente &lt;/b&gt;&lt;/font&gt;&lt;font face=&quot;dnyAGkNtWK1r6aDBjvo1&quot; style=&quot;font-size: 8px;&quot;&gt;&lt;b&gt;in &lt;/b&gt;&lt;/font&gt;&lt;font face=&quot;Times New Roman&quot; style=&quot;font-size: 8px;&quot;&gt;&lt;b&gt;sustinerea sesizarii&lt;/b&gt;&lt;/font&gt;&lt;font face=&quot;QtF6yI8JsvQuOGEIZyIr&quot; style=&quot;font-size: 8px;&quot;&gt;&lt;b&gt;&lt;br&gt;&lt;/b&gt;&lt;/font&gt;&lt;/div&gt;" style="strokeWidth=2;html=1;shape=mxgraph.flowchart.multi-document;whiteSpace=wrap;" vertex="1" parent="1">
          <mxGeometry x="270" y="20" width="99" height="50" as="geometry" />
        </mxCell>
        <mxCell id="jz8msP8jfMx1-e_s_hBi-18" value="&lt;div&gt;&lt;font face=&quot;Times New Roman&quot;&gt;&lt;b style=&quot;font-size: 10px;&quot;&gt;&lt;font style=&quot;font-size: 10px;&quot;&gt;Portal&lt;/font&gt;&lt;font style=&quot;font-size: 10px;&quot;&gt;ul tranmite&lt;/font&gt;&lt;/b&gt;&lt;/font&gt;&lt;/div&gt;&lt;div&gt;&lt;font face=&quot;vfHbmG-uGRJFUSHammYE&quot;&gt;&lt;b style=&quot;font-size: 10px;&quot;&gt;&lt;font style=&quot;font-size: 10px;&quot;&gt;&amp;nbsp;sesizarea catre RL&lt;/font&gt;&lt;/b&gt;&lt;/font&gt;&lt;/div&gt;" style="text;html=1;align=center;verticalAlign=middle;resizable=0;points=[];autosize=1;strokeColor=none;fillColor=none;" vertex="1" parent="1">
          <mxGeometry x="450" y="25" width="100" height="40" as="geometry" />
        </mxCell>
        <mxCell id="jz8msP8jfMx1-e_s_hBi-49" value="" style="edgeStyle=orthogonalEdgeStyle;rounded=0;orthogonalLoop=1;jettySize=auto;html=1;" edge="1" parent="1" source="jz8msP8jfMx1-e_s_hBi-23" target="jz8msP8jfMx1-e_s_hBi-40">
          <mxGeometry relative="1" as="geometry" />
        </mxCell>
        <mxCell id="jz8msP8jfMx1-e_s_hBi-23" value="&lt;div style=&quot;font-size: 9px;&quot;&gt;&lt;font face=&quot;lzszuSikNKo7Ezt-TEna&quot;&gt;O&lt;/font&gt;&lt;font style=&quot;font-size: 9px;&quot; face=&quot;lzszuSikNKo7Ezt-TEna&quot;&gt; cerere de tip&lt;/font&gt;&lt;font style=&quot;font-size: 11px;&quot; face=&quot;lzszuSikNKo7Ezt-TEna&quot;&gt; &lt;/font&gt;&lt;font style=&quot;font-size: 9px;&quot; face=&quot;lzszuSikNKo7Ezt-TEna&quot;&gt;&quot;Inregistrare Beneficiari Reali&quot; subtip &quot;Mentiune Provizorie&quot;&lt;/font&gt;&lt;font style=&quot;font-size: 9px;&quot;&gt;&lt;br&gt;&lt;/font&gt;&lt;/div&gt;" style="whiteSpace=wrap;html=1;fillColor=#f5f5f5;fontColor=#333333;strokeColor=#666666;" vertex="1" parent="1">
          <mxGeometry x="259" y="110" width="110" height="50" as="geometry" />
        </mxCell>
        <mxCell id="jz8msP8jfMx1-e_s_hBi-27" value="&lt;font style=&quot;font-size: 10px;&quot; face=&quot;Times New Roman&quot;&gt;dosar deschis in RL pentru corespondenta si raspuns catre entitate&lt;/font&gt;" style="whiteSpace=wrap;html=1;" vertex="1" parent="1">
          <mxGeometry x="20" y="190" width="120" height="60" as="geometry" />
        </mxCell>
        <mxCell id="jz8msP8jfMx1-e_s_hBi-50" value="" style="edgeStyle=orthogonalEdgeStyle;rounded=0;orthogonalLoop=1;jettySize=auto;html=1;" edge="1" parent="1" source="jz8msP8jfMx1-e_s_hBi-30" target="jz8msP8jfMx1-e_s_hBi-27">
          <mxGeometry relative="1" as="geometry" />
        </mxCell>
        <mxCell id="jz8msP8jfMx1-e_s_hBi-30" value="&lt;div&gt;&lt;font style=&quot;font-size: 10px;&quot; face=&quot;Times New Roman&quot;&gt;se lucreaza in RL se seteaza termen de solutionare&lt;br&gt;&lt;/font&gt;&lt;/div&gt;" style="rounded=1;whiteSpace=wrap;html=1;fillColor=#dae8fc;strokeColor=#6c8ebf;" vertex="1" parent="1">
          <mxGeometry x="40" y="110" width="80" height="50" as="geometry" />
        </mxCell>
        <mxCell id="jz8msP8jfMx1-e_s_hBi-36" value="" style="endArrow=classic;html=1;rounded=0;exitX=1;exitY=0.5;exitDx=0;exitDy=0;entryX=0;entryY=0.5;entryDx=0;entryDy=0;" edge="1" parent="1">
          <mxGeometry relative="1" as="geometry">
            <mxPoint x="120" y="134.66" as="sourcePoint" />
            <mxPoint x="259" y="134.66" as="targetPoint" />
          </mxGeometry>
        </mxCell>
        <mxCell id="jz8msP8jfMx1-e_s_hBi-37" value="&lt;font style=&quot;font-size: 10px;&quot; face=&quot;Times New Roman&quot;&gt;RL transmite in RC&lt;/font&gt;" style="edgeLabel;resizable=0;html=1;;align=center;verticalAlign=middle;fontSize=8;" connectable="0" vertex="1" parent="jz8msP8jfMx1-e_s_hBi-36">
          <mxGeometry relative="1" as="geometry">
            <mxPoint as="offset" />
          </mxGeometry>
        </mxCell>
        <mxCell id="jz8msP8jfMx1-e_s_hBi-48" value="" style="edgeStyle=orthogonalEdgeStyle;rounded=0;orthogonalLoop=1;jettySize=auto;html=1;" edge="1" parent="1" source="jz8msP8jfMx1-e_s_hBi-40" target="jz8msP8jfMx1-e_s_hBi-47">
          <mxGeometry relative="1" as="geometry" />
        </mxCell>
        <mxCell id="jz8msP8jfMx1-e_s_hBi-40" value="&lt;font style=&quot;font-size: 10px;&quot; face=&quot;Times New Roman&quot;&gt;se inregistreaza mentiunea provizorie asa cum vine de la entitate&lt;/font&gt;" style="whiteSpace=wrap;html=1;fillColor=#f5f5f5;fontColor=#333333;strokeColor=#666666;" vertex="1" parent="1">
          <mxGeometry x="450" y="105" width="100" height="60" as="geometry" />
        </mxCell>
        <mxCell id="jz8msP8jfMx1-e_s_hBi-47" value="&lt;font style=&quot;font-size: 10px;&quot; face=&quot;Times New Roman&quot;&gt;in starea la zi a firmei exista o mentiune provizorie pt. BR&lt;/font&gt;" style="shape=hexagon;perimeter=hexagonPerimeter2;whiteSpace=wrap;html=1;fixedSize=1;fillColor=#f5f5f5;fontColor=#333333;strokeColor=#666666;" vertex="1" parent="1">
          <mxGeometry x="610" y="112.5" width="140" height="45" as="geometry" />
        </mxCell>
        <mxCell id="jz8msP8jfMx1-e_s_hBi-51" value="1. verificari" style="shape=step;perimeter=stepPerimeter;whiteSpace=wrap;html=1;fixedSize=1;" vertex="1" parent="1">
          <mxGeometry x="150" y="285" width="190" height="80" as="geometry" />
        </mxCell>
        <mxCell id="jz8msP8jfMx1-e_s_hBi-54" value="" style="endArrow=classic;html=1;rounded=0;exitX=0.4;exitY=1.125;exitDx=0;exitDy=0;exitPerimeter=0;entryX=0.5;entryY=0;entryDx=0;entryDy=0;" edge="1" parent="1" source="jz8msP8jfMx1-e_s_hBi-18" target="jz8msP8jfMx1-e_s_hBi-30">
          <mxGeometry width="50" height="50" relative="1" as="geometry">
            <mxPoint x="400" y="270" as="sourcePoint" />
            <mxPoint x="470" y="280" as="targetPoint" />
            <Array as="points">
              <mxPoint x="490" y="80" />
              <mxPoint x="80" y="80" />
            </Array>
          </mxGeometry>
        </mxCell>
        <mxCell id="jz8msP8jfMx1-e_s_hBi-57" value="" style="edgeStyle=orthogonalEdgeStyle;rounded=0;orthogonalLoop=1;jettySize=auto;html=1;" edge="1" parent="1" source="jz8msP8jfMx1-e_s_hBi-55" target="jz8msP8jfMx1-e_s_hBi-51">
          <mxGeometry relative="1" as="geometry" />
        </mxCell>
        <mxCell id="jz8msP8jfMx1-e_s_hBi-55" value="Actor" style="shape=umlActor;verticalLabelPosition=bottom;verticalAlign=top;html=1;labelPadding=0;noLabel=1;" vertex="1" parent="1">
          <mxGeometry x="110" y="310" width="10" height="30" as="geometry" />
        </mxCell>
        <mxCell id="jz8msP8jfMx1-e_s_hBi-56" value="&lt;font style=&quot;font-size: 11px;&quot; face=&quot;Times New Roman&quot;&gt;ORCT&lt;/font&gt;" style="text;html=1;align=center;verticalAlign=middle;resizable=0;points=[];autosize=1;strokeColor=none;fillColor=none;" vertex="1" parent="1">
          <mxGeometry x="55" y="310" width="50" height="30" as="geometry" />
        </mxCell>
      </root>
    </mxGraphModel>
  </diagram>
</mxfile>
